<?xml version="1.0" encoding="UTF-8"?> <!-- Generator: Adobe Illustrator 21.1.0, SVG Export Plug-In . SVG Version: 6.00 Build 0) --> <svg xmlns="http://www.w3.org/2000/svg" xmlns:xlink="http://www.w3.org/1999/xlink" id="Capa_1" x="0px" y="0px" viewBox="0 0 350 120.3" style="enable-background:new 0 0 350 120.3;" xml:space="preserve"> <style type="text/css"> .st0{fill:#37267C;} .st1{clip-path:url(#SVGID_2_);} .st2{fill:url(#SVGID_3_);} .st3{fill:url(#SVGID_4_);} .st4{fill:url(#SVGID_5_);} .st5{clip-path:url(#SVGID_7_);fill:url(#SVGID_8_);} .st6{clip-path:url(#SVGID_10_);} .st7{fill:url(#SVGID_11_);} .st8{fill:url(#SVGID_12_);} .st9{fill:url(#SVGID_13_);} .st10{clip-path:url(#SVGID_15_);fill:url(#SVGID_16_);} .st11{clip-path:url(#SVGID_18_);} .st12{fill:url(#SVGID_19_);} .st13{fill:url(#SVGID_20_);} .st14{fill:url(#SVGID_21_);} .st15{clip-path:url(#SVGID_23_);fill:url(#SVGID_24_);} .st16{clip-path:url(#SVGID_26_);} .st17{fill:url(#SVGID_27_);} .st18{fill:url(#SVGID_28_);} .st19{fill:url(#SVGID_29_);} .st20{clip-path:url(#SVGID_31_);fill:url(#SVGID_32_);} .st21{clip-path:url(#SVGID_34_);} .st22{fill:url(#SVGID_35_);} .st23{fill:url(#SVGID_36_);} .st24{fill:url(#SVGID_37_);} .st25{clip-path:url(#SVGID_39_);fill:url(#SVGID_40_);} </style> <g> <g> <g> <path class="st0" d="M126.9,110.6c-0.7,0-1-0.3-1-1.1V107c0-0.7,0.3-1.1,1-1.1h5.1c0.6,0,1.2-0.1,1.8-0.2c0.5-0.1,1-0.4,1.4-0.7 c0.4-0.3,0.7-0.7,1-1.2c0.2-0.5,0.4-1.2,0.4-1.9c0-1.4-0.4-2.4-1.3-3.1c-0.9-0.7-1.9-1-3.2-1h-8.5v21.4c0,0.7-0.4,1.1-1.1,1.1 h-13.6c-0.7,0-1-0.4-1-1.1v-25c0-0.7,0.4-1,1-1h33.9c1.3,0,2.5,0.2,3.7,0.6c1.1,0.4,2.1,1,3,1.7c0.8,0.7,1.5,1.7,2,2.8 c0.5,1.1,0.7,2.4,0.7,3.8c0,1.4-0.3,2.7-0.8,3.7c-0.5,1.1-1.3,2-2.2,2.7c-0.9,0.7-2,1.2-3.3,1.6c-1.3,0.4-2.6,0.6-4.1,0.6H126.9 L126.9,110.6z"></path> <path class="st0" d="M166.1,120.2c-2,0-3.7-0.3-5.2-0.8c-1.5-0.6-2.7-1.3-3.6-2.3c-0.9-1-1.7-2.2-2.1-3.5 c-0.5-1.4-0.7-2.9-0.7-4.5V94.1c0-0.7,0.3-1,1-1h15.2c0.7,0,1.1,0.3,1.1,1v15.5c0,2.1,0.4,3.5,1,4.5c0.7,0.9,1.9,1.4,3.7,1.4H192 c0.7,0,1,0.3,1,1.1v2.5c0,0.7-0.3,1.1-1,1.1H166.1z"></path> <path class="st0" d="M232.9,120.2c-0.8,0-1.5-0.3-2.1-0.8l-15.4-15.9l-12.2,12h18c0.7,0,1.1,0.3,1.1,1.1v2.5 c0,0.7-0.4,1.1-1.1,1.1h-26.2c-0.5,0-0.7-0.2-0.7-0.7c0-0.1,0-0.2,0.1-0.3c0-0.1,0.1-0.2,0.3-0.3l24.9-25 c0.5-0.5,1.1-0.8,1.7-0.8h2.6c0.7,0,1.2,0.3,1.7,0.8l24.5,24.9c0.1,0.1,0.2,0.3,0.3,0.4c0,0.1,0.1,0.3,0.1,0.4 c0,0.4-0.3,0.6-0.9,0.6H232.9L232.9,120.2z"></path> <path class="st0" d="M253,120.2c-0.7,0-1-0.4-1-1.1v-2.5c0-0.4,0.1-0.8,0.2-1c0.1-0.2,0.3-0.5,0.7-0.9l19.4-16.9h-18.5 c-0.7,0-1.1-0.4-1.1-1.1v-2.5c0-0.7,0.4-1,1.1-1h37.1c0.7,0,1,0.3,1,1v2.5c0,0.4-0.1,0.8-0.2,1c-0.1,0.3-0.3,0.5-0.7,0.9 l-18,16.9h18.3c0.7,0,1.1,0.4,1.1,1.1v2.5c0,0.7-0.4,1.1-1.1,1.1H253L253,120.2z"></path> <path class="st0" d="M332.3,120.2c-0.8,0-1.5-0.3-2.1-0.8l-15.4-15.9l-12.2,12h18c0.7,0,1.1,0.3,1.1,1.1v2.5 c0,0.7-0.4,1.1-1.1,1.1h-26.2c-0.5,0-0.7-0.2-0.7-0.7c0-0.1,0-0.2,0.1-0.3c0-0.1,0.1-0.2,0.2-0.3l24.9-25 c0.5-0.5,1.1-0.8,1.7-0.8h2.6c0.7,0,1.2,0.3,1.7,0.8l24.5,24.9c0.1,0.1,0.2,0.3,0.3,0.4c0,0.1,0.1,0.3,0.1,0.4 c0,0.4-0.3,0.6-0.9,0.6H332.3L332.3,120.2z"></path> </g> <g> <g> <defs> <rect id="SVGID_17_" x="108.1" y="-0.1" width="141.3" height="85.2"></rect> </defs> <clipPath id="SVGID_2_"> <use xlink:href="#SVGID_17_" style="overflow:visible;"></use> </clipPath> <g class="st1"> <linearGradient id="SVGID_3_" gradientUnits="userSpaceOnUse" x1="467.9559" y1="-665.3922" x2="555.0661" y2="-665.3922" gradientTransform="matrix(1 0 0 -1 -298 -628)"> <stop offset="0" style="stop-color:#FFFFFF"></stop> <stop offset="0" style="stop-color:#F5F3F7"></stop> <stop offset="0" style="stop-color:#EFECF3"></stop> <stop offset="0" style="stop-color:#EFECF3"></stop> <stop offset="3.630000e-02" style="stop-color:#F2E1D8"></stop> <stop offset="0.1359" style="stop-color:#FBCB97"></stop> <stop offset="0.2309" style="stop-color:#F9B45F"></stop> <stop offset="0.3185" style="stop-color:#F6A433"></stop> <stop offset="0.3973" style="stop-color:#F49719"></stop> <stop offset="0.4645" style="stop-color:#F39012"></stop> <stop offset="0.5121" style="stop-color:#F28E13"></stop> <stop offset="0.9852" style="stop-color:#EF7945"></stop> </linearGradient> <path class="st2" d="M253,67.4c-6.5-13.2-18.3-29-31.8-41.1c-16-14.4-36.6-24.6-50.8-25.9c0,7.1-0.4,11.4-0.4,17.2 c19.3,2,38.5,11.3,45.2,15.9c6.6,4.6,21.6,15.1,35.2,32.8C263.8,84,253,67.4,253,67.4z"></path> <linearGradient id="SVGID_4_" gradientUnits="userSpaceOnUse" x1="468.1165" y1="-704.4396" x2="553.6011" y2="-704.4396" gradientTransform="matrix(1 0 0 -1 -298 -628)"> <stop offset="0" style="stop-color:#FFFFFF"></stop> <stop offset="0" style="stop-color:#F5F3F7"></stop> <stop offset="0" style="stop-color:#EFECF3"></stop> <stop offset="0" style="stop-color:#EFECF3"></stop> <stop offset="3.630000e-02" style="stop-color:#F2E1D8"></stop> <stop offset="0.1359" style="stop-color:#FBCB97"></stop> <stop offset="0.2309" style="stop-color:#F9B45F"></stop> <stop offset="0.3185" style="stop-color:#F6A433"></stop> <stop offset="0.3973" style="stop-color:#F49719"></stop> <stop offset="0.4645" style="stop-color:#F39012"></stop> <stop offset="0.5121" style="stop-color:#F28E13"></stop> <stop offset="0.9852" style="stop-color:#EF7945"></stop> </linearGradient> <path class="st3" d="M170.1,68c0,7.1,0,11.2,0,17c20.3,0,85.5,0,85.5,0l-6.1-4.4C229.3,71.2,186.3,67.6,170.1,68z"></path> <linearGradient id="SVGID_5_" gradientUnits="userSpaceOnUse" x1="468.0795" y1="-683.7391" x2="549.9195" y2="-683.7391" gradientTransform="matrix(1 0 0 -1 -298 -628)"> <stop offset="0" style="stop-color:#FFFFFF"></stop> <stop offset="0" style="stop-color:#F5F3F7"></stop> <stop offset="0" style="stop-color:#EFECF3"></stop> <stop offset="0" style="stop-color:#EFECF3"></stop> <stop offset="3.630000e-02" style="stop-color:#F2E1D8"></stop> <stop offset="0.1359" style="stop-color:#FBCB97"></stop> <stop offset="0.2309" style="stop-color:#F9B45F"></stop> <stop offset="0.3185" style="stop-color:#F6A433"></stop> <stop offset="0.3973" style="stop-color:#F49719"></stop> <stop offset="0.4645" style="stop-color:#F39012"></stop> <stop offset="0.5121" style="stop-color:#F28E13"></stop> <stop offset="0.9852" style="stop-color:#EF7945"></stop> </linearGradient> <path class="st4" d="M251.9,77.1c0-2.3,0-3.3,0-3.9c-2.7-3.2-15.5-16.4-31.7-24.5c-20.4-10.2-35.5-12.9-49.7-14.3l-0.4,17.1 c5.6,0,26.2,0.4,43,6C232.2,63.8,244.6,71.1,251.9,77.1z"></path> </g> </g> <g> <defs> <rect id="SVGID_22_" x="108.2" y="-0.1" width="141.3" height="85.2"></rect> </defs> <clipPath id="SVGID_7_"> <use xlink:href="#SVGID_22_" style="overflow:visible;"></use> </clipPath> <linearGradient id="SVGID_8_" gradientUnits="userSpaceOnUse" x1="405.4993" y1="-670.5555" x2="468.4069" y2="-670.5555" gradientTransform="matrix(1 0 0 -1 -298 -628)"> <stop offset="0" style="stop-color:#FFFFFF"></stop> <stop offset="0" style="stop-color:#F5F3F7"></stop> <stop offset="0" style="stop-color:#EFECF3"></stop> <stop offset="0" style="stop-color:#EFECF3;stop-opacity:0"></stop> <stop offset="1" style="stop-color:#37267C"></stop> </linearGradient> <path class="st5" d="M107.5,84.9c19.6,0,62.9,0,62.9,0V0.2c-3,8.5-16.2,34.3-28,44.6c-13,11.3-17.8,15.2-34.5,18.2L107.5,84.9z"></path> </g> </g> </g> <g> <path class="st0" d="M17.4,81.1c0,2.7-3.4,3.6-6.3,3.6c-2.9,0-5.4-1-7.5-3.1c-2-2-3.1-4.4-3.1-7.2c0-2.8,1-5.2,3.1-7.2 c2-2,4.5-3,7.5-3c3,0,5.2,1.2,6.6,3.7v-2.2h3.7v14c0,2.7-1,6.3-2.9,8.3c-2.1,2.1-4.6,3.1-7.5,3.1c-2.9,0-5.4-1-7.4-3 c-0.5-0.5-1-1.2-1.7-2.1l3.5-1.3c0.5,0.6,0.8,1,1,1.1c1.3,1.3,2.9,2,4.7,2C14.7,87.8,17.4,85.3,17.4,81.1z M17.6,72.9 c-0.3-1.3-0.9-2.5-1.9-3.5c-1.3-1.3-2.9-2-4.7-2c-1.8,0-3.4,0.7-4.8,2c-1.3,1.4-2,3-2,5c0,2,0.7,3.6,2,5c1.3,1.3,2.9,2,4.8,2 c1.8,0,3.4-0.7,4.8-2.1c1-0.9,1.6-2.1,1.8-3.4V72.9z"></path> <path class="st0" d="M34.2,68.5c-1.7,0.3-3,0.9-3.9,2c-0.9,1.1-1.4,2.4-1.4,4.1v9.7h-3.7V65.7h3.7v2.6c0.5-1.4,1.7-2.5,3.5-3 L34.2,68.5z"></path> <path class="st0" d="M44.1,84.5c-2.5,0-4.4-0.7-5.8-2.1c-1.4-1.4-2.2-3.2-2.2-5.3V65.7h3.7v11.2c0,1.2,0.4,2.3,1.3,3.2 c0.8,0.8,1.8,1.2,3,1.2c1.1,0,2.1-0.4,2.9-1.3c0.9-0.8,1.3-1.9,1.3-3.1V65.7H52v11.4c0,2.1-0.8,3.9-2.2,5.3 C48.3,83.8,46.5,84.5,44.1,84.5z"></path> <path class="st0" d="M55.6,65.7h3.7v2.1c1.4-2.4,3.6-3.6,6.6-3.6c3,0,5.4,1,7.5,3c2,2,3,4.4,3,7.2c0,2.8-1,5.2-3,7.2 c-2,2-4.5,3.1-7.5,3.1c-2.9,0-5.1-1.2-6.6-3.7v9.6h-3.7V65.7z M59.3,72.9v3.1c0.2,1.3,0.9,2.5,1.9,3.5c1.3,1.3,2.9,2,4.7,2 c1.8,0,3.4-0.7,4.7-2c1.3-1.3,2-3,2-5c0-2-0.7-3.7-2-5c-1.3-1.3-2.9-2-4.7-2c-1.8,0-3.4,0.7-4.8,2.1 C60.1,70.5,59.5,71.6,59.3,72.9z"></path> <path class="st0" d="M89.6,64.2c3,0,5.5,1,7.5,3c2,2,3,4.4,3,7.2c0,2.8-1,5.2-3,7.2c-2,2-4.5,3.1-7.5,3.1c-2.9,0-5.4-1-7.5-3.1 c-2-2-3.1-4.4-3.1-7.2c0-2.8,1-5.2,3.1-7.2C84.2,65.2,86.7,64.2,89.6,64.2z M84.8,69.5c-1.3,1.4-2,3-2,5c0,2,0.7,3.6,2,5 c1.3,1.3,2.9,2,4.7,2c1.8,0,3.4-0.7,4.7-2c1.3-1.3,2-3,2-5c0-2-0.7-3.7-2-5c-1.3-1.3-2.9-2-4.7-2C87.8,67.4,86.2,68.1,84.8,69.5z"></path> </g> </g> </svg> 